<?xml version="1.0" encoding="UTF-8"?>
<svg xmlns="http://www.w3.org/2000/svg" viewBox="0 0 100 100">
  <path
    style="fill: #f7ab1d"
    d="M6.38,53.46l23.42-21.5v42.11h16.13c3.92,0,7.34-.68,10.24-2.05,2.9-1.36,5.33-3.16,7.3-5.38,1.96-2.22,3.43-4.76,4.42-7.62.98-2.86,1.47-5.74,1.47-8.64s-.49-5.91-1.47-8.77c-.98-2.86-2.46-5.4-4.42-7.62-1.96-2.22-4.4-4.01-7.3-5.38-2.9-1.36-6.32-2.05-10.24-2.05h-21.63L6.38,5.21h44.67c7.17,0,13.46,1.28,18.88,3.84,5.42,2.56,9.92,5.95,13.5,10.18,3.58,4.22,6.27,9,8.06,14.34,1.79,5.33,2.69,10.82,2.69,16.45s-.89,11.12-2.69,16.45c-1.79,5.33-4.48,10.11-8.06,14.34-3.58,4.22-8.09,7.62-13.5,10.18-5.42,2.56-11.71,3.84-18.88,3.84H6.38v-41.34Z" />
</svg>
