<?xml version="1.0" encoding="UTF-8"?><svg
  xmlns="http://www.w3.org/2000/svg"
  viewBox="0 0 200 200">
  <rect
    x="0"
    y="0"
    rx="32"
    ry="32"
    width="200"
    height="200"
    style="fill: #f7ab1d" />
  <path
    d="M40.4,105.6l36.6-33.6v65.8h25.2c6.13,0,11.47-1.07,16-3.2,4.53-2.13,8.33-4.93,11.4-8.4,3.07-3.47,5.37-7.43,6.9-11.9,1.53-4.47,2.3-8.97,2.3-13.5s-.77-9.23-2.3-13.7c-1.53-4.47-3.83-8.43-6.9-11.9-3.07-3.47-6.87-6.27-11.4-8.4-4.53-2.13-9.87-3.2-16-3.2h-33.8l-28-33.4h69.8c11.2,0,21.03,2,29.5,6,8.47,4,15.5,9.3,21.1,15.9,5.6,6.6,9.8,14.07,12.6,22.4,2.8,8.33,4.2,16.9,4.2,25.7s-1.4,17.37-4.2,25.7c-2.8,8.33-7,15.8-12.6,22.4-5.6,6.6-12.63,11.9-21.1,15.9-8.47,4-18.3,6-29.5,6H40.4v-64.6Z"
    style="fill: #fcfcfc" />
</svg>
